<?xml version="1.0" encoding="utf-8"?>
<!-- Generator: Adobe Illustrator 21.1.0, SVG Export Plug-In . SVG Version: 6.00 Build 0)  -->
<svg version="1.1" id="design" xmlns="http://www.w3.org/2000/svg" xmlns:xlink="http://www.w3.org/1999/xlink" x="0px" y="0px"
	 viewBox="0 0 1018 280" style="enable-background:new 0 0 1018 280;" xml:space="preserve">
<style type="text/css">
	.st0{fill:#D6EEFC;}
	.st1{fill:#E8F5FC;}
	.st2{fill:#ACD9FC;}
	.st3{fill:#005EB8;}
	.st4{fill:none;stroke:#E7E7E7;stroke-width:2;stroke-linecap:round;stroke-linejoin:round;}
	.st5{fill:none;stroke:#0062A1;stroke-width:2.9;stroke-linecap:round;stroke-linejoin:round;}
	.st6{fill:#E7E7E7;}
	.st7{fill:#CCCCC7;}
	.st8{fill:#034A6D;}
	.st9{fill:#FEFFFE;}
	.st10{fill:#F5A707;}
	.st11{fill:none;stroke:#0062A1;stroke-width:2.9;stroke-miterlimit:10;stroke-dasharray:6,4;}
	.st12{fill:#BDBFC1;}
	.st13{fill:#3AA3DD;}
	.st14{fill:#FFFFFF;}
	.st15{fill:#FBB040;}
	.st16{fill:#ED8B00;}
	.st17{fill:#F2F0F0;}
	.st18{fill:none;stroke:#FFFFFF;stroke-miterlimit:10;}
	.st19{opacity:0.1;}
	.st20{opacity:0.2;fill:#034A6D;enable-background:new    ;}
	.st21{fill:#FBBC40;}
	.st22{fill:none;stroke:#FBBC40;stroke-width:6;stroke-linecap:round;stroke-linejoin:round;}
	.st23{fill:#FFFDFE;}
	.st24{fill:none;stroke:#0062A1;stroke-width:1.5;stroke-linecap:round;stroke-linejoin:round;}
	.st25{fill:none;stroke:#74B2E8;stroke-width:2.9;stroke-miterlimit:10;}
	.st26{fill:none;stroke:#034A6D;stroke-width:2.9;stroke-miterlimit:10;}
	.st27{fill:none;stroke:#0062A1;stroke-width:2.9;stroke-miterlimit:10;}
	.st28{fill:none;stroke:#FBB040;stroke-width:2.9;stroke-miterlimit:10;}
	.st29{fill:none;stroke:#0062A1;stroke-width:2.9;stroke-miterlimit:10;stroke-dasharray:6.36,4.24;}
	.st30{fill:none;stroke:#0062A1;stroke-width:2.9;stroke-miterlimit:10;stroke-dasharray:4.02,2.68;}
	.st31{fill:#FFFFFF;stroke:#0062A1;stroke-width:2.9;stroke-miterlimit:10;}
	.st32{fill:none;stroke:#FFFFFF;stroke-width:5;stroke-miterlimit:10;}
	.st33{fill:none;stroke:#ED8B00;stroke-width:8;stroke-miterlimit:10;}
	.st34{fill:none;stroke:#F5A707;stroke-width:8;stroke-miterlimit:10;}
	.st35{fill:#D7F0F9;}
</style>
<g>
	<g>
		<g>
			<path class="st0" d="M901.3,247l6.8-0.4l0.6-3.7c0.9-0.3,1.8-0.7,2.7-1.1l2.6,2.7l5.8-3.8l-1.4-3.9c0.6-0.7,1.2-1.3,1.7-2
				l3.9,1.2l3.1-6.1l-3.4-2.8c0.2-0.8,0.3-1.6,0.4-2.4l4.3-1.1l-0.4-6.8l-4.3-0.7c-0.2-0.8-0.4-1.5-0.8-2.2l3.1-3l-3.8-5.8l-4,1.5
				c-0.6-0.6-1.2-1.1-1.8-1.7l1.1-4l-6.1-3.1l-2.6,3.1c-0.9-0.3-1.7-0.5-2.7-0.7l-0.9-3.8l-6.8,0.4l-0.5,3.6c-1,0.3-2,0.5-3,1
				l-2.3-2.4l-5.8,3.8l1.1,3.1c-0.9,0.7-1.7,1.6-2.3,2.5l-3-0.8l-3.1,6.1l2.3,1.9c-0.4,1.2-0.5,2.4-0.8,3.6l-2.7,0.8l0.4,6.8
				l2.9,0.4c0.3,1.2,0.8,2.4,1.3,3.5l-1.9,2l3.8,5.8l2.7-1.1c0.8,0.9,1.8,1.7,2.8,2.3l-0.7,2.9l6.1,3.1l2.1-2.7
				c1,0.2,2.2,0.6,3.3,0.6L901.3,247z M894.5,227.1c-2.8-4.3-1.5-10.1,2.7-12.9c4.2-2.8,10.1-1.5,12.9,2.7
				c2.8,4.3,1.5,10.1-2.7,12.9C903,232.8,897.2,231.4,894.5,227.1z"/>
			<path class="st1" d="M914.5,214.2c-4.4-6.7-13.3-8.7-20.1-4.3c-6.7,4.4-8.7,13.3-4.3,20.1c4.4,6.7,13.3,8.7,20.1,4.3
				C916.9,229.9,918.9,220.9,914.5,214.2z M892.7,228.2c-3.4-5.3-1.9-12.4,3.3-15.7c5.3-3.4,12.4-1.9,15.8,3.4
				c3.4,5.3,1.9,12.4-3.5,15.8C903.2,235.2,896.1,233.6,892.7,228.2z"/>
		</g>
		<g>
			<path class="st1" d="M965.6,271.4l8.7-0.5l0.8-4.7c1.1-0.4,2.3-0.9,3.5-1.4l3.3,3.4l7.4-4.8l-1.9-4.9c0.8-0.9,1.5-1.6,2.2-2.6
				l5.1,1.4l4-7.8l-4.3-3.5c0.3-1,0.4-2.1,0.5-3l5.4-1.4l-0.3-8.8l-5.6-0.9c-0.3-1-0.5-1.9-1-2.8l3.9-3.8l-4.8-7.4l-5.1,2
				c-0.8-0.7-1.5-1.4-2.3-2.2l1.4-5.1l-7.9-3.9l-3.3,3.9c-1.1-0.3-2.1-0.6-3.4-0.8l-1.1-4.8l-8.7,0.5l-0.8,4.7
				c-1.2,0.3-2.6,0.6-3.8,1.2l-3.1-3.1l-7.4,4.8l1.5,3.9c-1.1,1.1-2.1,2.1-3.1,3.2l-3.8-1l-3.9,7.9l2.9,2.4c-0.5,1.5-0.8,3-1,4.8
				l-3.4,1l0.5,8.7l3.7,0.5c0.3,1.5,1,3,1.7,4.4l-2.6,2.6l4.8,7.4l3.6-1.3c1.1,1.1,2.3,2.2,3.5,3l-0.9,3.7l7.8,4l2.7-3.3
				c1.3,0.2,2.8,0.7,4.2,0.7L965.6,271.4z M954.9,247.3c-4.3-6.8-2.4-15.9,4.4-20.3c6.8-4.3,16-2.4,20.3,4.4
				c4.3,6.8,2.4,16-4.4,20.3C968.2,256.2,959.3,254.2,954.9,247.3z"/>
			<path class="st2" d="M985,228c-6.3-9.8-19.4-12.5-29.2-6.2s-12.6,19.3-6.3,29s19.3,12.6,29,6.3C988.2,250.7,991.2,237.7,985,228z
				 M953.1,248.5c-4.9-7.8-2.8-18.1,4.9-23c7.8-4.9,18.1-2.8,23,4.9s2.8,18.1-4.9,23C968.5,258.5,958.2,256.1,953.1,248.5z"/>
		</g>
		<path class="st2" d="M1009.3,181.1l2.6-1l-0.5-2.6c0.9-0.6,1.6-1.2,2.2-1.9l2.5,1l1.3-2.5l-2.2-1.3c0.2-0.9,0.4-1.9,0.3-2.8
			l2.5-1.1l-1-2.6l-2.6,0.5c-0.6-0.9-1.2-1.6-1.9-2.2l1-2.5l-2.5-1.3l-1.3,2.2c-0.9-0.2-1.9-0.4-2.8-0.3l-1.1-2.5l-2.6,1l0.5,2.6
			c-0.9,0.6-1.6,1.2-2.2,1.9l-2.5-1l-1.3,2.5l2.2,1.3c-0.2,0.9-0.4,1.9-0.3,2.8l-2.5,1.1l1,2.6l2.6-0.5c0.6,0.9,1.2,1.6,1.9,2.2
			l-1,2.5l2.5,1.3l1.3-2.2c0.9,0.2,1.9,0.4,2.8,0.3L1009.3,181.1z M1004,171.9c-0.6-1.9,0.4-4.1,2.4-4.9c1.9-0.6,4.1,0.4,4.9,2.4
			c0.6,1.9-0.4,4.1-2.4,4.9C1006.7,175.1,1004.6,173.9,1004,171.9z"/>
	</g>
	<g>
		<g>
			<path class="st0" d="M91.6,225.9l1.2-8.6l-4.4-1.7c-0.2-1.2-0.4-2.4-0.7-3.7l4-2.6l-3.3-8.1l-5.2,0.7c-0.8-1-1.3-1.8-2.1-2.6
				l2.4-4.6l-6.8-5.4l-4.3,3.5c-0.9-0.5-1.9-0.8-2.8-1.1l-0.3-5.6l-8.6-1.2l-1.9,5.2c-1,0.1-1.9,0.1-2.9,0.4l-3-4.6l-8.1,3.3
				l0.9,5.4c-0.9,0.7-1.7,1.2-2.6,1.8l-4.8-2.3l-5.4,6.8l3.3,4c-0.5,1-1,2-1.5,3.2l-4.9,0.2l-1.2,8.6l4.4,1.5c0.1,1.3,0.2,2.6,0.5,4
				l-3.5,2.3l3.3,8.1l4.1-0.7c0.7,1.2,1.6,2.4,2.5,3.5l-1.7,3.5l6.8,5.4l2.9-2.4c1.4,0.7,2.9,1.3,4.3,1.9l0.3,3.6l8.6,1.2l1.2-3.5
				c1.6-0.1,3.2-0.4,4.7-0.8l2,2.8l8.1-3.3l-0.7-3.7c1.3-0.8,2.6-1.8,3.6-2.9l3.4,1.6l5.4-6.8L86,229c0.5-1.2,1.2-2.6,1.5-3.9
				L91.6,225.9z M65.2,229.6c-6.1,2.5-13-0.6-15.4-6.5c-2.5-5.9,0.6-13,6.5-15.4c6.1-2.5,13,0.6,15.4,6.5
				C74.3,220.3,71.2,227.2,65.2,229.6z"/>
			<path class="st1" d="M54,201.5c-9.4,3.8-14.1,14.5-10.2,23.9s14.5,14.1,23.9,10.2s14.1-14.5,10.2-23.9S63.4,197.6,54,201.5z
				 M66.2,232c-7.5,3-15.9-0.7-18.8-8c-3-7.5,0.7-15.9,8-18.9c7.5-3,15.9,0.7,18.8,8.1C77.4,220.6,73.7,229.1,66.2,232z"/>
		</g>
		<path class="st2" d="M21.1,252.8l-0.5-2.8H18c-0.4-1-0.8-1.8-1.5-2.5l1.5-2.3l-2.2-1.8l-1.7,1.9c-0.8-0.4-1.8-0.7-2.7-0.8
			l-0.6-2.7L8,242.3v2.6c-1,0.4-1.8,0.8-2.5,1.5L3.3,245l-1.8,2.2l1.9,1.7c-0.4,0.8-0.7,1.8-0.8,2.7L0,252.2l0.5,2.8h2.6
			c0.4,1,0.8,1.8,1.5,2.5l-1.5,2.3l2.2,1.8l1.7-1.9c0.8,0.4,1.8,0.7,2.7,0.8l0.6,2.7l2.8-0.5v-2.6c1-0.4,1.8-0.8,2.5-1.5l2.3,1.5
			l1.8-2.2l-1.9-1.7c0.4-0.8,0.7-1.8,0.8-2.7L21.1,252.8z M11.1,256.2c-2,0.2-4-1.2-4.3-3.3c-0.2-2,1.2-4,3.3-4.3
			c2-0.2,4,1.2,4.3,3.3C14.7,254.2,13.2,256.1,11.1,256.2z"/>
	</g>
</g>
<g>
	<path class="st3" d="M13.5,84.4H2.1V65.1h11.4v4.2H7.3v3h5.8v4.2H7.3v3.6h6.2V84.4z"/>
	<path class="st3" d="M35.3,84.4h-6.8l-7-13.6h-0.1c0.2,2.1,0.3,3.8,0.3,4.9v8.7h-4.6V65.1h6.8l7,13.4H31c-0.1-1.9-0.2-3.5-0.2-4.7
		v-8.7h4.6L35.3,84.4L35.3,84.4z"/>
	<path class="st3" d="M55.8,74.3c0,3.2-0.9,5.7-2.7,7.4s-4.3,2.6-7.5,2.6h-6.2V65.1h6.7c3.1,0,5.5,0.8,7.2,2.4S55.8,71.3,55.8,74.3z
		 M50.4,74.5c0-1.8-0.3-3.1-1-3.9c-0.7-0.9-1.8-1.3-3.2-1.3h-1.5v10.8h1.2c1.6,0,2.7-0.5,3.5-1.4C50,77.8,50.4,76.4,50.4,74.5z"/>
	<path class="st3" d="M57.7,79.2v-4.1h7.4v4.1H57.7z"/>
	<path class="st3" d="M76.3,84.4h-5.2v-15h-4.7v-4.3H81v4.3h-4.7V84.4z"/>
	<path class="st3" d="M101.8,74.7c0,3.2-0.8,5.7-2.4,7.4s-3.9,2.5-7,2.5c-3,0-5.3-0.8-7-2.5S83,77.9,83,74.7c0-3.2,0.8-5.7,2.4-7.4
		c1.6-1.7,3.9-2.5,7-2.5s5.4,0.8,7,2.5S101.8,71.5,101.8,74.7z M88.5,74.7c0,3.7,1.3,5.6,3.9,5.6c1.3,0,2.3-0.5,2.9-1.4s1-2.3,1-4.2
		c0-1.9-0.3-3.3-1-4.3c-0.6-0.9-1.6-1.4-2.9-1.4C89.8,69.1,88.5,71,88.5,74.7z"/>
	<path class="st3" d="M103.8,79.2v-4.1h7.4v4.1H103.8z"/>
	<path class="st3" d="M125.3,84.4h-11.4V65.1h11.4v4.2h-6.2v3h5.8v4.2h-5.8v3.6h6.2V84.4z"/>
	<path class="st3" d="M147,84.4h-6.8l-7-13.6H133c0.2,2.1,0.3,3.8,0.3,4.9v8.7h-4.6V65.1h6.8l7,13.4h0.1c-0.1-1.9-0.2-3.5-0.2-4.7
		v-8.7h4.6L147,84.4L147,84.4z"/>
	<path class="st3" d="M167.6,74.3c0,3.2-0.9,5.7-2.7,7.4s-4.3,2.6-7.5,2.6h-6.2V65.1h6.7c3.1,0,5.5,0.8,7.2,2.4
		S167.6,71.3,167.6,74.3z M162.2,74.5c0-1.8-0.3-3.1-1-3.9c-0.7-0.9-1.8-1.3-3.2-1.3h-1.5v10.8h1.2c1.6,0,2.7-0.5,3.5-1.4
		C161.8,77.8,162.2,76.4,162.2,74.5z"/>
	<path class="st3" d="M13.7,102.9c0,2.4-0.7,4.2-2,5.5s-3.2,1.9-5.5,1.9H1.5V96.1h4.9c2.3,0,4.1,0.6,5.3,1.8S13.7,100.7,13.7,102.9z
		 M9.7,103.1c0-1.3-0.3-2.3-0.8-2.9s-1.3-0.9-2.4-0.9H5.4v8h0.9c1.2,0,2-0.3,2.6-1S9.7,104.5,9.7,103.1z"/>
	<path class="st3" d="M24.7,110.4h-8.5V96.1h8.5v3.1h-4.6v2.2h4.3v3.1h-4.3v2.7h4.6C24.7,107.2,24.7,110.4,24.7,110.4z"/>
	<path class="st3" d="M35.2,96.1h4.3l-4.7,14.3h-4.5l-4.7-14.3H30l1.9,7.2c0.4,1.6,0.6,2.7,0.7,3.4c0-0.5,0.1-1,0.3-1.7
		s0.3-1.2,0.4-1.6L35.2,96.1z"/>
	<path class="st3" d="M49.6,110.4h-8.5V96.1h8.5v3.1H45v2.2h4.3v3.1H45v2.7h4.6V110.4z"/>
	<path class="st3" d="M52.1,110.4V96.1H56v11.2h5.5v3.1C61.5,110.4,52.1,110.4,52.1,110.4z"/>
	<path class="st3" d="M77.1,103.2c0,2.4-0.6,4.2-1.8,5.5s-2.9,1.9-5.2,1.9c-2.2,0-4-0.6-5.2-1.9s-1.8-3.1-1.8-5.5s0.6-4.2,1.8-5.4
		c1.2-1.2,2.9-1.9,5.2-1.9c2.3,0,4,0.6,5.2,1.9S77.1,100.8,77.1,103.2z M67.2,103.2c0,2.8,1,4.1,2.9,4.1c1,0,1.7-0.3,2.2-1
		s0.7-1.7,0.7-3.1s-0.2-2.5-0.7-3.2s-1.2-1-2.1-1C68.2,99,67.2,100.4,67.2,103.2z"/>
	<path class="st3" d="M90,100.6c0,1.6-0.5,2.8-1.4,3.7s-2.3,1.3-4,1.3h-1.1v4.7h-3.9V96.1h4.9c1.8,0,3.2,0.4,4.1,1.2
		S90,99.2,90,100.6z M83.5,102.5h0.7c0.6,0,1-0.2,1.4-0.5s0.5-0.8,0.5-1.3c0-1-0.5-1.4-1.6-1.4h-1V102.5z"/>
	<path class="st3" d="M98.5,110.4l-2.9-10.3h-0.1c0.1,1.8,0.2,3.1,0.2,4.1v6.2h-3.4V96.1h5.1l3,10.1h0.1l2.9-10.1h5.1v14.3H105v-6.3
		c0-0.3,0-0.7,0-1.1s0.1-1.4,0.1-2.9H105l-2.9,10.3H98.5z"/>
	<path class="st3" d="M120.1,110.4h-8.5V96.1h8.5v3.1h-4.6v2.2h4.3v3.1h-4.3v2.7h4.6V110.4z"/>
	<path class="st3" d="M136.2,110.4h-5.1l-5.2-10.1h-0.1c0.1,1.6,0.2,2.8,0.2,3.6v6.4h-3.4V96.1h5l5.2,9.9h0.1
		c-0.1-1.4-0.1-2.6-0.1-3.5V96h3.4L136.2,110.4L136.2,110.4z"/>
	<path class="st3" d="M145.6,110.4h-3.9V99.3h-3.5v-3.2H149v3.2h-3.5v11.1H145.6z"/>
</g>
<g>
	<path class="st3" d="M798.1,15.1h-3.8V0.9h8.4V4h-4.6v2.7h4.3v3.1h-4.3L798.1,15.1L798.1,15.1z"/>
	<path class="st3" d="M808.9,9.9v5.2H805V0.9h4.7c3.9,0,5.8,1.4,5.8,4.2c0,1.7-0.8,2.9-2.4,3.8l4.2,6.2h-4.4l-3-5.2H808.9z M808.9,7
		h0.7c1.3,0,2-0.6,2-1.8c0-1-0.7-1.5-2-1.5h-0.8L808.9,7L808.9,7z"/>
	<path class="st3" d="M827.1,15.1h-8.5V0.9h8.5V4h-4.6v2.2h4.3v3.1h-4.3V12h4.6V15.1z"/>
	<path class="st3" d="M838.9,10.8c0,0.9-0.2,1.7-0.7,2.4s-1.1,1.2-1.9,1.6c-0.8,0.4-1.8,0.6-3,0.6c-1,0-1.7-0.1-2.4-0.2
		s-1.3-0.4-2-0.7V11c0.7,0.4,1.5,0.7,2.3,0.9s1.5,0.3,2.2,0.3c0.6,0,1-0.1,1.3-0.3s0.4-0.5,0.4-0.8c0-0.2-0.1-0.4-0.2-0.5
		s-0.3-0.3-0.5-0.4c-0.2-0.1-0.9-0.5-1.9-0.9c-0.9-0.4-1.6-0.8-2.1-1.2c-0.5-0.4-0.8-0.9-1-1.4S829,5.5,829,4.8
		c0-1.3,0.5-2.3,1.4-3.1s2.3-1.1,3.9-1.1c1.5,0,3,0.3,4.5,1l-1.2,3c-1.3-0.6-2.5-0.9-3.5-0.9c-0.5,0-0.9,0.1-1.1,0.3
		c-0.2,0.2-0.3,0.4-0.3,0.7c0,0.3,0.1,0.5,0.4,0.8c0.3,0.2,1.1,0.6,2.4,1.2c1.2,0.6,2.1,1.1,2.6,1.8S838.9,9.8,838.9,10.8z"/>
	<path class="st3" d="M853.4,15.1h-3.9V9.3H845v5.8h-3.9V0.9h3.9v5.3h4.5V0.9h3.9V15.1z"/>
	<path class="st3" d="M871.3,15.1l-1-1c-0.6,0.4-1.1,0.6-1.4,0.8c-0.4,0.1-0.8,0.2-1.3,0.3s-1,0.1-1.6,0.1c-1,0-1.9-0.2-2.7-0.5
		s-1.4-0.8-1.8-1.5s-0.6-1.4-0.6-2.2c0-1.7,0.9-3,2.7-3.9c-0.4-0.5-0.7-0.9-0.9-1.5s-0.3-1.1-0.3-1.7c0-1,0.4-1.9,1.2-2.5
		s1.9-0.9,3.3-0.9c1.4,0,2.4,0.3,3.2,0.9s1.1,1.4,1.1,2.5c0,0.7-0.2,1.4-0.6,2c-0.4,0.6-1.1,1.2-2,1.7l1.9,1.8
		c0.5-0.7,0.8-1.6,1-2.5h4c-0.2,0.9-0.5,1.8-0.9,2.7s-0.9,1.7-1.4,2.3l3.1,3L871.3,15.1L871.3,15.1z M864.7,10.9
		c0,0.4,0.1,0.7,0.4,1s0.7,0.4,1.2,0.4c0.4,0,0.7,0,1-0.1s0.5-0.2,0.6-0.3l-2.4-2.5C865,9.8,864.7,10.3,864.7,10.9z M867.6,4.1
		c0-0.3-0.1-0.5-0.3-0.7s-0.4-0.2-0.7-0.2s-0.5,0.1-0.7,0.2s-0.3,0.4-0.3,0.8c0,0.5,0.3,1,0.9,1.5c0.4-0.2,0.7-0.5,0.8-0.7
		S867.6,4.4,867.6,4.1z"/>
	<path class="st3" d="M891.3,15.1h-8.5V0.9h8.5V4h-4.6v2.2h4.3v3.1h-4.3V12h4.6V15.1z"/>
	<path class="st3" d="M893.8,15.1V0.9h3.9V12h5.5v3.1H893.8z"/>
	<path class="st3" d="M913.9,15.1h-8.5V0.9h8.5V4h-4.6v2.2h4.3v3.1h-4.3V12h4.6V15.1z"/>
	<path class="st3" d="M922.2,6.8h6.2v7.7c-1.7,0.6-3.5,0.9-5.5,0.9c-2.2,0-3.9-0.6-5.1-1.9S916,10.4,916,8c0-2.3,0.7-4.1,2-5.4
		s3.2-1.9,5.5-1.9c0.9,0,1.7,0.1,2.5,0.3s1.5,0.4,2.1,0.6l-1.2,3c-1-0.5-2.2-0.8-3.4-0.8c-1.1,0-2,0.4-2.6,1.1S920,6.7,920,8
		s0.3,2.4,0.8,3.1s1.4,1,2.4,1c0.6,0,1.1-0.1,1.6-0.2V9.8h-2.5L922.2,6.8L922.2,6.8z"/>
	<path class="st3" d="M940,15.1l-0.7-2.7h-4.6l-0.7,2.7h-4.2l4.7-14.3h5.1l4.7,14.3H940z M938.5,9.3L937.9,7c-0.1-0.5-0.3-1.2-0.5-2
		s-0.3-1.4-0.4-1.8c-0.1,0.3-0.2,0.9-0.3,1.6c-0.2,0.8-0.6,2.3-1.1,4.5H938.5z"/>
	<path class="st3" d="M959.3,15.1h-5.1L949,5l0,0c0.1,1.6,0.2,2.8,0.2,3.6V15h-3.4V0.9h5l5.2,9.9h0.1C956,9.4,956,8.2,956,7.3V0.9
		h3.4v14.2H959.3z"/>
	<path class="st3" d="M968.7,15.1h-3.9V4h-3.5V0.9h10.8V4h-3.5v11.1H968.7z"/>
	<path class="st3" d="M803.4,29.9c-1.2,0-2.2,0.5-2.9,1.5c-0.7,1-1,2.4-1,4.2c0,3.7,1.4,5.6,4.2,5.6c0.9,0,1.7-0.1,2.5-0.4
		s1.6-0.5,2.4-0.9v4.4c-1.6,0.7-3.4,1.1-5.5,1.1c-2.9,0-5.1-0.8-6.7-2.5c-1.6-1.7-2.3-4.1-2.3-7.3c0-2,0.4-3.7,1.1-5.3
		c0.8-1.5,1.8-2.7,3.2-3.5s3.1-1.2,5-1.2c2.1,0,4.1,0.5,6,1.4l-1.6,4.1c-0.7-0.3-1.4-0.6-2.1-0.8S804.2,29.9,803.4,29.9z"/>
	<path class="st3" d="M828.7,25.9v11.6c0,2.5-0.7,4.5-2.1,5.9c-1.4,1.4-3.5,2.1-6.2,2.1c-2.6,0-4.6-0.7-6.1-2
		c-1.4-1.3-2.1-3.3-2.1-5.8V25.9h5.2v11.3c0,1.4,0.3,2.4,0.8,3s1.3,0.9,2.3,0.9c1.1,0,1.8-0.3,2.3-0.9c0.5-0.6,0.7-1.6,0.7-3V25.9
		H828.7z"/>
	<path class="st3" d="M845.4,39.3c0,1.2-0.3,2.3-0.9,3.2c-0.6,0.9-1.5,1.6-2.6,2.2c-1.1,0.5-2.5,0.8-4,0.8c-1.3,0-2.4-0.1-3.2-0.3
		c-0.9-0.2-1.8-0.5-2.7-0.9v-4.6c1,0.5,2,0.9,3.1,1.2s2.1,0.4,3,0.4c0.8,0,1.3-0.1,1.7-0.4s0.5-0.6,0.5-1c0-0.3-0.1-0.5-0.2-0.7
		c-0.1-0.2-0.4-0.4-0.7-0.6c-0.3-0.2-1.2-0.6-2.6-1.2c-1.3-0.6-2.2-1.1-2.8-1.7c-0.6-0.5-1.1-1.2-1.4-1.8c-0.3-0.7-0.5-1.5-0.5-2.5
		c0-1.8,0.6-3.2,1.9-4.2s3.1-1.5,5.3-1.5c2,0,4,0.5,6.1,1.4l-1.6,4c-1.8-0.8-3.4-1.2-4.7-1.2c-0.7,0-1.2,0.1-1.5,0.4
		s-0.5,0.5-0.5,0.9s0.2,0.7,0.6,1c0.4,0.3,1.5,0.8,3.2,1.6c1.7,0.7,2.8,1.5,3.5,2.4C845.1,36.9,845.4,38,845.4,39.3z"/>
	<path class="st3" d="M856.9,45.1h-5.2v-15H847v-4.3h14.6v4.3h-4.7L856.9,45.1L856.9,45.1z"/>
	<path class="st3" d="M882.4,35.5c0,3.2-0.8,5.7-2.4,7.4s-3.9,2.5-7,2.5c-3,0-5.3-0.8-7-2.5c-1.6-1.7-2.4-4.2-2.4-7.4
		s0.8-5.7,2.4-7.4c1.6-1.7,3.9-2.5,7-2.5s5.4,0.8,7,2.5S882.4,32.2,882.4,35.5z M869.1,35.5c0,3.7,1.3,5.6,3.9,5.6
		c1.3,0,2.3-0.5,2.9-1.4c0.6-0.9,1-2.3,1-4.2s-0.3-3.3-1-4.3c-0.6-0.9-1.6-1.4-2.9-1.4C870.4,29.8,869.1,31.7,869.1,35.5z"/>
	<path class="st3" d="M894.2,45.1l-3.9-13.9h-0.1c0.2,2.4,0.3,4.2,0.3,5.5v8.4h-4.6V25.9h6.9l4,13.7h0.1l3.9-13.7h6.9v19.3H903v-8.5
		c0-0.4,0-0.9,0-1.5c0-0.5,0.1-1.9,0.2-3.9h-0.1l-3.9,13.9L894.2,45.1L894.2,45.1z"/>
	<path class="st3" d="M935.3,35.1c0,3.2-0.9,5.7-2.7,7.4s-4.3,2.6-7.5,2.6H919V25.9h6.7c3.1,0,5.5,0.8,7.2,2.4
		C934.5,29.8,935.3,32.1,935.3,35.1z M929.9,35.3c0-1.8-0.3-3.1-1-3.9c-0.7-0.9-1.8-1.3-3.2-1.3h-1.5v10.8h1.2
		c1.6,0,2.7-0.5,3.5-1.4C929.5,38.6,929.9,37.2,929.9,35.3z"/>
	<path class="st3" d="M950.2,45.1h-11.4V25.9h11.4V30H944v3h5.8v4.2H944v3.6h6.2V45.1z"/>
	<path class="st3" d="M966.2,39.3c0,1.2-0.3,2.3-0.9,3.2c-0.6,0.9-1.5,1.6-2.6,2.2c-1.1,0.5-2.5,0.8-4,0.8c-1.3,0-2.4-0.1-3.2-0.3
		c-0.9-0.2-1.8-0.5-2.7-0.9v-4.6c1,0.5,2,0.9,3.1,1.2s2.1,0.4,3,0.4c0.8,0,1.3-0.1,1.7-0.4s0.5-0.6,0.5-1c0-0.3-0.1-0.5-0.2-0.7
		c-0.1-0.2-0.4-0.4-0.7-0.6c-0.3-0.2-1.2-0.6-2.6-1.2c-1.3-0.6-2.2-1.1-2.8-1.7c-0.6-0.5-1.1-1.2-1.4-1.8c-0.3-0.7-0.5-1.5-0.5-2.5
		c0-1.8,0.6-3.2,1.9-4.2s3.1-1.5,5.3-1.5c2,0,4,0.5,6.1,1.4l-1.6,4c-1.8-0.8-3.4-1.2-4.7-1.2c-0.7,0-1.2,0.1-1.5,0.4
		S958,30.6,958,31s0.2,0.7,0.6,1c0.4,0.3,1.5,0.8,3.2,1.6c1.7,0.7,2.8,1.5,3.5,2.4C965.9,36.9,966.2,38,966.2,39.3z"/>
	<path class="st3" d="M969.2,45.1V25.9h5.2v19.3L969.2,45.1L969.2,45.1z"/>
	<path class="st3" d="M986.3,33.9h8.3v10.4c-2.3,0.8-4.7,1.2-7.4,1.2c-3,0-5.3-0.9-6.9-2.6c-1.6-1.7-2.4-4.2-2.4-7.4
		c0-3.1,0.9-5.5,2.7-7.3s4.3-2.6,7.5-2.6c1.2,0,2.4,0.1,3.4,0.3c1.1,0.2,2,0.5,2.8,0.9l-1.6,4.1c-1.4-0.7-2.9-1-4.6-1
		c-1.5,0-2.7,0.5-3.5,1.5c-0.8,1-1.2,2.4-1.2,4.2s0.4,3.2,1.1,4.1c0.8,0.9,1.8,1.4,3.3,1.4c0.8,0,1.5-0.1,2.1-0.2v-3h-3.4v-4H986.3z
		"/>
	<path class="st3" d="M1016.9,45.1h-6.8l-7-13.6h-0.1c0.2,2.1,0.3,3.8,0.3,4.9v8.7h-4.6V25.9h6.8l7,13.4h0.1
		c-0.1-1.9-0.2-3.5-0.2-4.7v-8.7h4.6L1016.9,45.1L1016.9,45.1z"/>
</g>
<line class="st4" x1="63.8" y1="278.5" x2="954.2" y2="278.5"/>
<g>
	<g>
		<line class="st5" x1="814.8" y1="128.6" x2="863.8" y2="150.7"/>
		<g>
			<rect x="796.9" y="80.9" class="st6" width="6.6" height="24.4"/>
			<rect x="798.5" y="80.9" class="st7" width="3.3" height="24.4"/>
			<g>
				<g>
					<g>
						<g>
							<path class="st8" d="M818.1,272.5H619.8c-3.8,0-6.8-3.1-6.8-6.8V130.6c0-3.8,3.1-6.8,6.8-6.8h198.3c3.8,0,6.8,3.1,6.8,6.8
								v135C824.9,269.4,821.9,272.5,818.1,272.5z"/>
							<rect x="621.1" y="132.6" class="st0" width="195.5" height="124.9"/>
							<rect x="635.5" y="139.6" class="st9" width="166.8" height="111"/>
							<rect x="641.7" y="145.9" class="st10" width="28.3" height="7"/>
							<rect x="711.7" y="147.8" class="st6" width="84.4" height="3.2"/>
							<rect x="641.7" y="241.1" class="st6" width="154.4" height="3.2"/>
							<rect x="641.7" y="160.7" class="st11" width="154.4" height="29.8"/>
							<path class="st6" d="M733.8,265.8c-1,2-2.9,3.3-5.2,3.3h-27.1c-2.3,0-4.3-1.3-5.2-3.3H590.9v7.7H839v-7.7H733.8z"/>
							<path class="st12" d="M590.9,273.8L590.9,273.8c10.2,3.7,21,5.6,31.8,5.6h184.6c10.9,0,21.6-1.9,31.8-5.6l0,0H590.9z"/>
							<g>
								<rect x="641.7" y="199.5" class="st2" width="37.3" height="34.5"/>
								<rect x="683.6" y="229.5" class="st6" width="21.5" height="4.5"/>
								<rect x="683.6" y="221.1" class="st6" width="28.3" height="4.5"/>
								<rect x="683.6" y="212.9" class="st6" width="28.3" height="4.5"/>
								<rect x="683.6" y="199.5" class="st6" width="28.3" height="7"/>
								<g>
									<path class="st13" d="M641.7,229.3c0,0,5.5-9.4,7.5-6c2,3.5,3.3,5.3,5.5,0s4.2-14.8,8-8.3s4.3,13.9,6.8,11.7
										s6.9-2.2,9.6,2.6v4.7h-37.3L641.7,229.3z"/>
									<circle class="st14" cx="670.3" cy="209.8" r="4.3"/>
								</g>
							</g>
							<g>
								<rect x="726" y="199.5" class="st15" width="37.3" height="34.5"/>
								<rect x="767.9" y="229.5" class="st6" width="21.5" height="4.5"/>
								<rect x="767.9" y="221.1" class="st6" width="28.3" height="4.5"/>
								<rect x="767.9" y="212.9" class="st6" width="28.3" height="4.5"/>
								<rect x="767.9" y="199.5" class="st6" width="28.3" height="7"/>
								<polygon class="st14" points="752.9,216.8 745.8,220.9 738.7,225 738.7,216.8 738.7,208.6 745.8,212.7 								"/>
							</g>
						</g>
						<path class="st13" d="M646.3,58.4v22.7h186.9V58.4H646.3z M655,73.3c-2.1,0-3.7-1.7-3.7-3.8c0-2.1,1.7-3.7,3.8-3.7
							s3.7,1.7,3.7,3.7C658.7,71.6,657.1,73.3,655,73.3L655,73.3L655,73.3z"/>
						<g>
							<rect x="674.3" y="34.4" class="st16" width="23.4" height="89.3"/>
							<polygon class="st17" points="697.7,34.4 674.3,34.4 686,16 686,16 							"/>
							<rect x="681.4" y="34.4" class="st10" width="9.3" height="89.3"/>
							<polygon class="st8" points="692.5,26.2 686,16 679.6,26.2 							"/>
						</g>
						<line class="st18" x1="721" y1="81.3" x2="721" y2="75.7"/>
						<line class="st18" x1="733.5" y1="81.3" x2="733.5" y2="75.7"/>
						<line class="st18" x1="745.9" y1="81.3" x2="745.9" y2="75.7"/>
						<line class="st18" x1="671.2" y1="81.2" x2="671.2" y2="75.6"/>
						<line class="st18" x1="708.5" y1="81.3" x2="708.5" y2="75.7"/>
						<line class="st18" x1="758.4" y1="81.3" x2="758.4" y2="75.7"/>
						<line class="st18" x1="770.8" y1="81.3" x2="770.8" y2="75.7"/>
						<polygon class="st3" points="883.8,176.2 732.5,189.9 730.4,157.8 881.8,144.2 						"/>
						<g class="st19">
							<path class="st13" d="M881.8,144.2l-52,15.8"/>
							<path class="st13" d="M830.7,169.8l53,6.3"/>
							<path class="st13" d="M732.5,189.9l52-15.8"/>
							<path class="st13" d="M783.6,164.2l-53-6.3"/>
						</g>
						<line class="st18" x1="783.3" y1="81.2" x2="783.3" y2="75.6"/>
						<line class="st18" x1="795.7" y1="81.2" x2="795.7" y2="75.6"/>
						<line class="st18" x1="808.1" y1="81.2" x2="808.1" y2="75.6"/>
						<line class="st18" x1="820.5" y1="81.2" x2="820.5" y2="75.6"/>
					</g>
					<path class="st20" d="M623.8,124c-8.5,0-10.8-0.3-10.8,7.6v118.5h6.8c12,0,14.2-1.2,15.4-7.6V124H623.8z"/>
				</g>
				<g>
					<path class="st14" d="M790.1,157.6l-9.5,11.9l11.9,9.5l2.7-3.4l-8.5-6.8l6.8-8.5L790.1,157.6z"/>
					<path class="st14" d="M814.8,158l8.5,6.8l-6.8,8.5l3.4,2.7l9.5-11.9l-11.9-9.5L814.8,158z"/>
					<path class="st14" d="M798.9,174.6l8.3-18.1l3.9,1.9l-8.3,18.1L798.9,174.6z"/>
				</g>
			</g>
			<circle class="st21" cx="800.2" cy="106.1" r="5.4"/>
			<path class="st22" d="M807.7,136.4c-2.1,1.7-4.8,2.5-7.5,2.5c-6.8,0.2-12.5-5.2-12.7-12s5.2-12.5,12-12.7c0.2,0,0.5,0,0.7,0v-6.9
				"/>
		</g>
		<polyline class="st5" points="749.3,155.7 805.8,121.5 808.8,123.1 		"/>
	</g>
	<g>
		<g>
			<path class="st8" d="M620.7,241.4h-250c-3.6,0-6.5-2.9-6.5-6.5V52.3c0-3.6,2.9-6.5,6.5-6.5h249.9c3.6,0,6.5,2.9,6.5,6.5v182.5
				C627.2,238.3,624.3,241.2,620.7,241.4C620.9,241.4,620.8,241.4,620.7,241.4z"/>
			<rect x="374.8" y="54.9" class="st0" width="241.8" height="159.1"/>
			<g>
				<rect x="387.5" y="71.9" class="st23" width="216.4" height="125.2"/>
			</g>
			<path class="st17" d="M620.7,241.4h-250c-3.6,0-6.5-2.9-6.5-6.5v-11.7h263v11.7C627.3,238.5,624.3,241.4,620.7,241.4
				C620.8,241.4,620.8,241.4,620.7,241.4z"/>
			<rect x="472.4" y="143.6" class="st15" width="46.8" height="43.4"/>
			<rect x="478.1" y="175.7" class="st14" width="12.8" height="5.7"/>
			<rect x="478.1" y="149.4" class="st14" width="35.4" height="8.7"/>
			<rect x="514.4" y="81.1" class="st10" width="22.8" height="3.9"/>
			<rect x="486.7" y="81.1" class="st6" width="22.8" height="3.9"/>
			<path class="st6" d="M525.9,241.4h-60.3c0,0,2.8,25.6-16.9,32.7v4.9h94v-4.9C523.1,267,525.9,241.4,525.9,241.4z"/>
			<path class="st12" d="M525.8,245.6c-0.1-1.4,0-2.9,0.1-4.2h-60.3c0,0,0.1,1.7,0.1,4.2H525.8z"/>
			<path class="st17" d="M495.8,279h47v-4.9h-94v4.9H495.8z"/>
			<rect x="397.4" y="94.3" class="st13" width="198.8" height="33.1"/>
			<path class="st14" d="M492.2,111.4c0,2.9-0.7,5.1-2.1,6.5c-3.6,3-8.8,3-12.4,0c-1.4-1.6-2.2-3.7-2.2-6.6s0.7-5.1,2.2-6.5
				c3.6-3,8.8-3,12.4,0C491.6,106.5,492.2,108.6,492.2,111.4z M480.5,111.4c0,3.3,1.1,5,3.4,5c1,0.1,2-0.4,2.6-1.2
				c1.1-2.4,1.1-5.2,0-7.6c-0.6-0.8-1.6-1.2-2.6-1.2C481.7,106.5,480.5,108.1,480.5,111.4z"/>
			<path class="st14" d="M509.9,111.1c0.2,2.5-0.7,4.9-2.4,6.6c-1.8,1.7-4.2,2.5-6.6,2.3h-5.6v-17.1h5.9c2.3-0.2,4.6,0.6,6.3,2.1
				C509.2,106.7,510,108.8,509.9,111.1z M505.1,111.3c0.1-1.2-0.2-2.5-0.9-3.5c-0.7-0.8-1.8-1.2-2.8-1.1H500v9.6h1
				c1.1,0.1,2.3-0.3,3.1-1.2C504.9,113.9,505.2,112.7,505.1,111.3L505.1,111.3z"/>
			<path class="st14" d="M523.1,120H513v-17.1h10.1v3.7h-5.6v2.7h5.2v3.7h-5.2v3.2h5.6V120z"/>
			<polygon class="st3" points="518,177.2 504.8,172.5 509.6,185.6 512,181.8 516.1,185.8 518.2,183.8 514.1,179.7 			"/>
			<path class="st24" d="M514.1,174.1c0.6-3.1-0.4-6.3-2.6-8.5c-3.7-3.7-9.7-3.7-13.5,0c-3.7,3.7-3.7,9.7,0,13.5
				c2.3,2.3,5.4,3.2,8.6,2.7"/>
			<path class="st24" d="M511,173c0.1-1.9-0.5-3.6-1.9-5c-2.4-2.4-6.4-2.4-8.8,0s-2.4,6.4,0,8.8c1.3,1.3,3.1,2,5,1.9"/>
			<path class="st24" d="M507.6,171.8c-0.1-0.5-0.4-1-0.7-1.3c-1.1-1.1-3-1.2-4.1-0.1c-1.1,1.1-1.2,3-0.1,4.1l0.1,0.1
				c0.4,0.4,0.8,0.6,1.3,0.7"/>
			<g>
				<rect x="398.8" y="143.6" class="st13" width="46.8" height="43.4"/>
				<rect x="545.8" y="143.6" class="st2" width="46.8" height="43.4"/>
				<rect x="404.5" y="149.4" class="st14" width="35.4" height="8.7"/>
				<rect x="404.5" y="175.7" class="st14" width="12.8" height="5.7"/>
				<rect x="551.6" y="175.7" class="st14" width="12.8" height="5.7"/>
				<rect x="551.6" y="149.4" class="st14" width="35.4" height="8.7"/>
			</g>
		</g>
		<path class="st14" d="M468.3,106.5c-1,0-2,0.5-2.6,1.3c-0.7,1.1-1,2.4-0.9,3.7c0,3.3,1.2,5,3.7,5c0.7,0,1.4-0.1,2.2-0.3
			c0.7-0.2,1.4-0.5,2.2-0.7v3.9c-1.6,0.6-3.2,0.9-4.9,0.9c-2.2,0.1-4.3-0.7-5.9-2.3c-1.3-1.4-2.1-3.6-2.1-6.5c0-1.7,0.3-3.2,1-4.7
			c0.6-1.3,1.7-2.4,2.9-3.1c1.3-0.7,2.9-1.1,4.4-1c1.9,0,3.6,0.4,5.3,1.2l-1.4,3.6c-0.6-0.3-1.2-0.5-1.9-0.7
			C469.8,106.6,469.1,106.5,468.3,106.5z"/>
		<path class="st14" d="M534.8,102.7l-6.4,17.6h-4l6.4-17.6H534.8z"/>
		<path class="st14" d="M452.8,101.3L442.1,112l10.7,10.7l3.1-3l-7.7-7.7l7.7-7.7L452.8,101.3z"/>
		<path class="st14" d="M537.9,104.3l7.7,7.7l-7.7,7.7l3.1,3l10.7-10.7L541,101.3L537.9,104.3z"/>
		<rect x="571.4" y="81.1" class="st6" width="22.8" height="3.9"/>
		<rect x="542.1" y="81.1" class="st6" width="22.8" height="3.9"/>
		<rect x="399.5" y="80" class="st13" width="25.9" height="6.4"/>
	</g>
	<g>
		<g>
			<g>
				<path class="st8" d="M327.3,256h-58c-3.2,0-5.8-2.5-5.8-5.8l0,0V137.1c0-3.2,2.5-5.8,5.8-5.8l0,0h58c3.2,0,5.8,2.5,5.8,5.8l0,0
					v113.1C333.1,253.4,330.5,255.9,327.3,256z"/>
				<rect x="269.1" y="141.4" class="st17" width="58.6" height="94"/>
				<circle class="st14" cx="298.4" cy="245.3" r="4.5"/>
				<path class="st14" d="M305.7,137.8h-14.3c-0.7,0-1.2-0.5-1.2-1.2v-0.4c0-0.7,0.5-1.2,1.2-1.2h14.3c0.7,0,1.2,0.5,1.2,1.2v0.4
					C306.9,137.2,306.4,137.7,305.7,137.8C305.8,137.8,305.7,137.8,305.7,137.8z"/>
				<line class="st25" x1="274.2" y1="148.7" x2="322.9" y2="148.7"/>
				<line class="st26" x1="279.9" y1="156.7" x2="290.9" y2="156.7"/>
				<line class="st26" x1="279.9" y1="164.5" x2="290.9" y2="164.5"/>
				<line class="st26" x1="279.9" y1="172.4" x2="290.9" y2="172.4"/>
				<line class="st27" x1="295.7" y1="156.7" x2="303.6" y2="156.7"/>
				<line class="st27" x1="295.7" y1="164.5" x2="303.6" y2="164.5"/>
				<line class="st27" x1="295.7" y1="172.4" x2="303.6" y2="172.4"/>
				<line class="st28" x1="306.9" y1="156.7" x2="309" y2="156.7"/>
				<line class="st28" x1="306.9" y1="164.5" x2="309" y2="164.5"/>
				<line class="st28" x1="306.9" y1="172.4" x2="309" y2="172.4"/>
				<line class="st28" x1="274.6" y1="156.7" x2="276.6" y2="156.7"/>
				<line class="st28" x1="274.6" y1="164.5" x2="276.6" y2="164.5"/>
				<line class="st28" x1="274.6" y1="172.4" x2="276.6" y2="172.4"/>
				<line class="st26" x1="279.9" y1="188.2" x2="297" y2="188.2"/>
				<line class="st27" x1="301.7" y1="188.2" x2="311.6" y2="188.2"/>
				<line class="st28" x1="315" y1="188.2" x2="317.1" y2="188.2"/>
				<line class="st27" x1="302.7" y1="204" x2="322.7" y2="204"/>
				<line class="st28" x1="274.6" y1="188.2" x2="276.6" y2="188.2"/>
				<line class="st26" x1="279.9" y1="219.8" x2="297" y2="219.8"/>
				<line class="st27" x1="274.6" y1="219.8" x2="276.6" y2="219.8"/>
				<line class="st27" x1="300.2" y1="219.8" x2="302.4" y2="219.8"/>
				<line class="st28" x1="289" y1="211.9" x2="290.9" y2="211.9"/>
				<line class="st26" x1="289" y1="196.1" x2="299" y2="196.1"/>
				<line class="st28" x1="302.7" y1="196.1" x2="322.9" y2="196.1"/>
				<line class="st25" x1="274.2" y1="180.4" x2="322.7" y2="180.4"/>
				<line class="st25" x1="274.2" y1="227.8" x2="322.7" y2="227.8"/>
			</g>
			<polyline class="st27" points="375.4,186.8 377.7,186.8 377.7,184.4 			"/>
			<line class="st29" x1="377.7" y1="181.1" x2="377.7" y2="123.7"/>
			<polyline class="st27" points="377.7,122.1 377.7,119.6 375.4,119.6 			"/>
			<polyline class="st27" points="374,119.6 371.6,119.6 371.6,117.2 			"/>
			<polyline class="st27" points="371.6,115.9 371.6,113.5 369.2,113.5 			"/>
			<line class="st29" x1="365.9" y1="113.5" x2="308.6" y2="113.5"/>
			<polyline class="st27" points="306.9,113.5 304.5,113.5 304.5,115.9 			"/>
			<polyline class="st27" points="304.5,117.2 304.5,119.6 302.1,119.6 			"/>
			<line class="st30" x1="300" y1="119.6" x2="295.7" y2="119.6"/>
			<polyline class="st27" points="294.6,119.6 292.2,119.6 292.2,117.2 			"/>
			<polyline class="st27" points="292.2,115.9 292.2,113.5 289.9,113.5 			"/>
			<line class="st29" x1="286.5" y1="113.5" x2="229.3" y2="113.5"/>
			<polyline class="st27" points="227.5,113.5 225.2,113.5 225.2,115.9 			"/>
			<polyline class="st27" points="225.2,117.2 225.2,119.6 222.8,119.6 			"/>
			<polyline class="st27" points="221.5,119.6 219,119.6 219,122.1 			"/>
			<line class="st29" x1="219" y1="125.4" x2="219" y2="182.7"/>
			<polyline class="st27" points="219,184.4 219,186.8 221.5,186.8 			"/>
			<polyline class="st27" points="221.5,199 219,199 219,201.4 			"/>
			<line class="st29" x1="219" y1="204.8" x2="219" y2="262"/>
			<polyline class="st27" points="219,263.8 219,266.2 221.5,266.2 			"/>
			<polyline class="st27" points="222.8,266.2 225.2,266.2 225.2,268.5 			"/>
			<polyline class="st27" points="225.2,270 225.2,272.3 227.5,272.3 			"/>
			<line class="st29" x1="230.9" y1="272.3" x2="288.1" y2="272.3"/>
			<polyline class="st27" points="289.9,272.3 292.2,272.3 292.2,270 			"/>
			<polyline class="st27" points="292.2,268.5 292.2,266.2 294.6,266.2 			"/>
			<line class="st30" x1="296.8" y1="266.2" x2="301.1" y2="266.2"/>
			<polyline class="st27" points="302.1,266.2 304.5,266.2 304.5,268.5 			"/>
			<polyline class="st27" points="304.5,270 304.5,272.3 306.9,272.3 			"/>
			<line class="st29" x1="310.2" y1="272.3" x2="367.6" y2="272.3"/>
			<polyline class="st27" points="369.2,272.3 371.6,272.3 371.6,270 			"/>
			<polyline class="st27" points="371.6,268.5 371.6,266.2 374,266.2 			"/>
			<polyline class="st27" points="375.4,266.2 377.7,266.2 377.7,263.8 			"/>
			<line class="st29" x1="377.7" y1="260.4" x2="377.7" y2="203"/>
			<polyline class="st27" points="377.7,201.4 377.7,199 375.4,199 			"/>
			<polyline class="st27" points="374,199 371.6,199 371.6,196.6 			"/>
			<line class="st30" x1="371.6" y1="194.5" x2="371.6" y2="190.3"/>
			<polyline class="st27" points="371.6,189.1 371.6,186.8 374,186.8 			"/>
			<rect x="212.9" y="107.5" class="st31" width="12.2" height="12.2"/>
			<rect x="212.9" y="266.2" class="st31" width="12.2" height="12.2"/>
			<rect x="371.6" y="107.5" class="st31" width="12.2" height="12.2"/>
			<rect x="371.6" y="266.2" class="st31" width="12.2" height="12.2"/>
			<rect x="371.6" y="186.8" class="st31" width="12.2" height="12.2"/>
			<rect x="292.2" y="266.2" class="st31" width="12.2" height="12.2"/>
			<rect x="292.2" y="107.5" class="st31" width="12.2" height="12.2"/>
		</g>
		<g>
			<g>
				<polygon class="st2" points="219,90.6 231.8,90.6 248.5,106.4 248.4,90.6 276.8,90.6 276.8,32.8 219,32.8 				"/>
				<g>
					<path class="st0" d="M251.6,73.1c0,3.2-2.6,5.9-5.9,5.9c-3.2,0-5.9-2.6-5.9-5.9s2.6-5.9,5.9-5.9
						C248.9,67.2,251.6,69.8,251.6,73.1z"/>
					<path class="st14" d="M256,61.2c-5-0.7-8.8-5-8.8-10.1c0-1.5,0.3-2.9,0.9-4.1c-0.7-0.2-1.5-0.3-2.3-0.3
						c-5.7,0-10.3,4.6-10.3,10.3v4.1c0,2.9-1.3,5.6-3.5,7.5c-0.6,0.5-0.9,1.2-0.9,1.9c0,1.4,1.1,2.6,2.6,2.6h24.2
						c1.4,0,2.6-1.1,2.6-2.6c0-0.7-0.3-1.5-0.9-2C257.3,66.7,256,64.1,256,61.2z"/>
					<path class="st10" d="M264.7,51.1c0,4-3.3,7.3-7.3,7.3s-7.3-3.3-7.3-7.3s3.3-7.3,7.3-7.3C261.5,43.8,264.7,47.1,264.7,51.1z"/>
					<g>
						<path class="st14" d="M258.7,55H257v-4.5v-0.7V49c-0.3,0.3-0.5,0.5-0.6,0.5l-0.9,0.7l-0.8-1l2.5-2h1.4V55H258.7z"/>
					</g>
				</g>
			</g>
			<g>
				<polygon class="st0" points="346.8,122 334,122 317.3,137.7 317.4,122 288.9,122 288.9,64.1 346.8,64.1 				"/>
				<g>
					<g>
						<g>
							<path class="st13" d="M340.2,88.6L340.2,88.6c-6-6-13.9-9.3-22.3-9.3s-16.3,3.3-22.3,9.2c-0.1,0.1-0.1,0.2-0.1,0.3
								c0,0.1,0.1,0.3,0.1,0.3l3.3,3.3c0.1,0.1,0.2,0.1,0.3,0.1c0.1,0,0.3-0.1,0.3-0.1c4.9-4.9,11.4-7.6,18.3-7.6s13.4,2.7,18.3,7.6
								c0.1,0.1,0.2,0.1,0.3,0.1c0.1,0,0.3-0.1,0.3-0.1l3.3-3.3c0.1-0.1,0.1-0.2,0.1-0.3C340.3,88.8,340.2,88.7,340.2,88.6z"/>
							<path class="st13" d="M317.9,87.9c-6.1,0-11.8,2.4-16.2,6.7c-0.2,0.2-0.2,0.5,0,0.7l3.2,3.2c0.1,0.1,0.2,0.1,0.3,0.1
								c0.1,0,0.3-0.1,0.3-0.1c3.3-3.3,7.6-5.1,12.2-5.1s9,1.8,12.2,5.1c0.1,0.1,0.2,0.1,0.3,0.1c0.1,0,0.3-0.1,0.3-0.1l3.2-3.2
								c0.1-0.1,0.1-0.2,0.1-0.3s-0.1-0.3-0.1-0.3C329.7,90.3,324,87.9,317.9,87.9z"/>
							<path class="st13" d="M317.9,96.5c-3.8,0-7.4,1.5-10.1,4.2c-0.1,0.1-0.1,0.2-0.1,0.3c0,0.1,0.1,0.3,0.1,0.3l3.2,3.2
								c0.1,0.1,0.2,0.1,0.3,0.1s0.3-0.1,0.3-0.1c1.6-1.6,3.8-2.5,6.1-2.5c2.3,0,4.5,0.9,6.1,2.5c0.1,0.1,0.2,0.1,0.3,0.1
								s0.3-0.1,0.3-0.1l3.2-3.2c0.2-0.2,0.2-0.5,0-0.7C325.3,98,321.7,96.5,317.9,96.5z"/>
							<path class="st13" d="M317.9,105.7c-1.3,0-2.6,0.5-3.5,1.5c-0.2,0.2-0.2,0.5,0,0.7l3.2,3.2c0.1,0.1,0.2,0.1,0.3,0.1
								c0.1,0,0.3-0.1,0.3-0.1l3.2-3.2c0.2-0.2,0.2-0.5,0-0.7C320.4,106.2,319.2,105.7,317.9,105.7z"/>
						</g>
					</g>
					<line class="st32" x1="334.8" y1="77.2" x2="303.2" y2="108.8"/>
				</g>
			</g>
		</g>
	</g>
	<g>
		<circle class="st17" cx="182.8" cy="164.3" r="31"/>
		<g>
			<g>
				<path class="st33" d="M216.9,193.1c-8.2,9.7-20.4,15.9-34.1,15.9c-24.6,0-44.6-20-44.6-44.6"/>
				<g>
					<polygon class="st16" points="204.4,189.7 225.3,178 225,201.9 					"/>
				</g>
			</g>
		</g>
		<g>
			<g>
				<path class="st34" d="M149.2,135.1c8.2-9.4,20.2-15.3,33.6-15.3c24.6,0,44.6,20,44.6,44.6"/>
				<g>
					<polygon class="st10" points="161.6,138.6 140.6,150 141.3,126.1 					"/>
				</g>
			</g>
		</g>
		<g>
			<path class="st8" d="M172.1,155.9l-8.4,8.4l8.4,8.4l2.4-2.4l-6-6l6-6L172.1,155.9z"/>
			<path class="st8" d="M191.2,158.3l6,6l-6,6l2.4,2.4l8.4-8.4l-8.4-8.4L191.2,158.3z"/>
			<path class="st8" d="M177.3,169.8l8-13.4l2.9,1.8l-8,13.4L177.3,169.8z"/>
		</g>
	</g>
	<g>
		<path class="st14" d="M495.7,87c-24,0-43.5-19.5-43.5-43.5S471.7,0,495.7,0s43.5,19.5,43.5,43.5S519.7,87,495.7,87z"/>
		<circle class="st0" cx="495.7" cy="43.5" r="38.5"/>
		<path class="st35" d="M482.4,43.5c0-19.8,15-36.4,34.8-38.4c-1.2-0.1-2.5-0.2-3.7-0.2c-21.3-0.3-38.8,16.7-39.1,38
			S491,81.6,512.3,82c0.4,0,0.8,0,1.2,0c1.2,0,2.5,0,3.7-0.2C497.4,79.9,482.4,63.4,482.4,43.5z"/>
		<path class="st13" d="M537.1,43.5c0-22.9-18.5-41.4-41.4-41.4s-41.4,18.5-41.4,41.4c0,22.7,18.2,41.1,40.9,41.4h0.8
			C518.9,84.6,537.1,66.2,537.1,43.5z M460,46.3h13.2c0.2,4.9,0.7,9.6,1.9,14.4c-3.1,0.7-6.2,1.7-9.1,2.8
			C462.8,58.3,460.7,52.5,460,46.3L460,46.3z M466.3,23.4c3,1.2,6,2.1,9.1,2.8c-1.1,4.7-1.8,9.5-1.9,14.4h-13.3
			C460.7,34.4,462.8,28.5,466.3,23.4z M531.3,40.7H518c-0.2-4.9-0.7-9.6-1.9-14.4c3.1-0.7,6.2-1.7,9.1-2.8
			C528.7,28.7,530.8,34.5,531.3,40.7z M512.4,40.7h-13.8V28.4c4-0.1,8-0.5,12-1C511.7,31.7,512.2,36.2,512.4,40.7L512.4,40.7z
			 M498.6,22.8V8.5c3.8,1.7,7.7,6.4,10.4,13.5C505.5,22.3,502.1,22.6,498.6,22.8z M492.8,8.4v14.4c-3.5-0.2-7.1-0.5-10.4-0.8
			C485.1,14.7,489,10.1,492.8,8.4z M492.8,28.4v12.3H479c0.1-4.5,0.7-9,1.9-13.3C484.9,28,488.8,28.4,492.8,28.4z M479,46.4h13.8
			v12.3c-4,0.1-8,0.5-12,1C479.8,55.3,479.3,50.9,479,46.4z M492.8,64.3v14.4c-3.8-1.7-7.7-6.4-10.4-13.4
			C485.9,64.7,489.4,64.4,492.8,64.3z M498.6,78.7V64.3c3.5,0.2,7.1,0.5,10.4,0.8C506.3,72.3,502.4,77,498.6,78.7z M498.6,58.6V46.4
			h13.8c-0.1,4.5-0.7,9-1.9,13.3C506.5,59,502.5,58.6,498.6,58.6z M517.9,46.4h13.2c-0.5,6.2-2.5,12.1-6.1,17.2
			c-3-1.2-6-2.1-9.1-2.8C517.3,56,517.9,51.2,517.9,46.4z M521.4,18.8c-2.2,0.8-4.6,1.5-6.9,2.1c-1.1-3.6-2.9-7.2-5.1-10.3
			C513.9,12.3,518,15.1,521.4,18.8z M482.1,10.5c-2.1,3.2-3.9,6.6-5.1,10.3c-2.3-0.6-4.7-1.2-7-2.1
			C473.4,15.1,477.5,12.3,482.1,10.5z M469.9,68.2c2.2-0.8,4.6-1.5,6.9-2.1c1.1,3.6,2.9,7.2,5.1,10.3
			C477.5,74.5,473.4,71.7,469.9,68.2z M509.3,76.5c2.1-3.2,3.9-6.6,5.1-10.3c2.3,0.6,4.7,1.2,6.9,2.1
			C518,71.7,513.9,74.5,509.3,76.5L509.3,76.5z"/>
	</g>
</g>
</svg>
